<svg xmlns="http://www.w3.org/2000/svg" viewBox="0 0 477.19 210.55"><defs><style>.cls-1{fill:#ffcc4d;}.cls-2{fill:#fecb4d;}.cls-3{fill:#f3900d;}.cls-4{fill:#674601;}.cls-5{fill:#b65205;}.cls-6{fill:#b65105;}.cls-7{fill:#f3900c;}.cls-8{fill:#674600;}.cls-9{fill:#664501;}.cls-10{fill:#fefefe;}.cls-11{fill:#5d9040;}.cls-12{fill:#664601;}.cls-13{fill:#fefefd;}.cls-14{fill:#664602;}.cls-15{fill:#664500;}.cls-16{fill:#664600;}.cls-17{fill:#e65a70;}</style></defs><title>Asset 2Nanoji</title><g id="Layer_2" data-name="Layer 2"><g id="Layer_1-2" data-name="Layer 1"><path class="cls-1" d="M239.93,134.06A34,34,0,0,1,206,100.6a117.39,117.39,0,0,0-1-12.88c-1.45-10.65-7.8-17-18.11-19.24a65.3,65.3,0,0,0-30.12.24C146,71.5,140.19,78.3,139,89.43c-.65,6.1-.3,12.37-1.52,18.34C134.38,123,120.8,134,106,134.05c-16.83.11-30.12-10-34-25.92a33.16,33.16,0,0,1,31.9-41.07,104.25,104.25,0,0,0,14.9-.87C132.44,64,137.46,58,138,44c.21-5.3.18-10.67,1-15.89C141.66,11,157.75-1.35,175.14.12c17.1,1.45,30.7,16.24,30.9,33.41.06,5,.44,9.95.91,14.9,1,10.65,7.06,17.09,17.56,18.5a86,86,0,0,0,15.4,1C257.81,67.1,274,83.14,274,101.08,274,119.54,259,134.08,239.93,134.06Z"/><path class="cls-1" d="M442.71.05c17.88.09,32.91,14.85,33.16,32.55s-14.41,32.79-32.26,33.53a117,117,0,0,0-14.41,1.15c-13.56,2.27-20.89,11.29-21.14,26-.14,8.19-.06,16.33-4.4,23.71-6.41,10.9-15.92,16.56-28.57,17.13a92.22,92.22,0,0,0-13.37,1.28c-13,2.51-19.93,11-20.77,24.34-.41,6.44-.45,13.07-2.09,19.23-3.78,14.24-19.26,24.31-34.05,23-15.63-1.34-29-13.72-30.82-28.58-2.25-18.18,7.93-33.32,25.92-37.43,7.37-1.68,15.09-1.78,22.62-2.82,12.07-1.66,17.95-8.41,18.5-20.82.26-5.81.22-11.68,1.06-17.41,2.23-15.22,16-26.75,31.3-26.92a155.36,155.36,0,0,0,15.92-1c11.63-1.34,17.79-7.9,18.69-19.62.4-5.14.69-10.29.93-15.44A33.58,33.58,0,0,1,442.71.05Z"/><path class="cls-1" d="M37.47,202A34.16,34.16,0,0,1,3.87,166.85c.61-17.71,15.79-32.73,34.11-32.73s33.77,15.69,33.83,34.24C71.86,186.53,56,202.1,37.47,202Z"/></g><g id="Layer_2-2" data-name="Layer 2"><path class="cls-2" d="M35.21,134.12h5.24l2.33.35A33.51,33.51,0,0,1,63,145.14a33.15,33.15,0,0,1,8.92,21.36A33.64,33.64,0,0,1,69.4,181a2.83,2.83,0,0,0-.08.78,1.46,1.46,0,0,1-.19.23c-3.13,2.53-6.27,5.06-9.4,7.6-1.25,1-1.41,1-2.34-.46a1.87,1.87,0,0,1,.23-.26l5.25-4.3c1.94-1.6,3.9-3.17,5.8-4.81a1.63,1.63,0,0,0,.08-2.55c-.85-1-1.73-1-2.87,0L57.63,184c-1.8,1.48-3.6,3-5.39,4.48l-1.12.4a3,3,0,0,1,.05-1.15c1.16-2.34,2.39-4.64,3.56-7a2,2,0,0,0-.79-2.83,2,2,0,0,0-2.89.62c-.79,1.09-1.51,2.22-2.32,3.29-1.78,2.36-3.54,4.74-5.41,7A13.31,13.31,0,0,0,40,197.9a28.72,28.72,0,0,0,.68,4l-5.67,0a13.66,13.66,0,0,0,.63-5.88,13,13,0,0,0-2.84-6.71c-.92-1.11-1.91-2.17-2.76-3.33-1.81-2.47-3.52-5-5.34-7.46a2.51,2.51,0,0,0-1.52-.92,2.09,2.09,0,0,0-2.14,3.12c1.17,2.34,2.39,4.65,3.58,7,.17.33.39.68-.09,1l-1.16-.4-7.9-6.49q-2.86-2.34-5.73-4.67a1.75,1.75,0,0,0-2.75.15,1.71,1.71,0,0,0,.21,2.67c.14.14.29.28.44.4l7.86,6.42c1,.8,1.94,1.61,2.9,2.4-1,1.52-1.11,1.52-2.38.47-1.51-1.26-3-2.48-4.57-3.73L6.8,182l-.17-.23v0a4,4,0,0,0-.15-.57A32.72,32.72,0,0,1,4,170.81a34,34,0,0,1,27.8-36.11C32.93,134.49,34.07,134.31,35.21,134.12Zm2.37,46.71c7,0,14.69-5.08,17.21-11.14a1.1,1.1,0,0,0-.29-1.41c-.47-.36-.85-.05-1.27.22a62.46,62.46,0,0,1-5.42,3.42A20.27,20.27,0,0,1,32,173.53a28.83,28.83,0,0,1-9.42-5c-.4-.32-.81-.55-1.27-.17a1.07,1.07,0,0,0-.26,1.36,7.61,7.61,0,0,0,.39.72,24,24,0,0,0,4.45,5.49A17.46,17.46,0,0,0,37.58,180.83Zm12.82-29.75a12.8,12.8,0,0,0-1.4.17c-3.42.8-5.35,3.25-6.74,6.24a1.08,1.08,0,0,0,.27,1,1.49,1.49,0,0,0,1.2,0,13.9,13.9,0,0,1,13.24,0c.43.22.82.4,1.23.05a1,1,0,0,0,.17-1.35A27.72,27.72,0,0,0,56.23,154,7.64,7.64,0,0,0,50.41,151.08Zm-23.18,5.78a13.07,13.07,0,0,1,6.47,1.69,1.21,1.21,0,0,0,1.12,0,1.34,1.34,0,0,0,.19-1.18,11.74,11.74,0,0,0-3.09-4.24,7.22,7.22,0,0,0-4.5-1.94c-3.53-.15-7.66,2.92-8.57,6.4a1.23,1.23,0,0,0,.34,1,1.08,1.08,0,0,0,1,0A13.49,13.49,0,0,1,27.22,156.86Z"/><path class="cls-3" d="M24.58,188.64c.48-.28.26-.63.09-1-1.2-2.32-2.42-4.63-3.58-7a2.09,2.09,0,0,1,2.14-3.12,2.51,2.51,0,0,1,1.52.92c1.82,2.46,3.53,5,5.34,7.46.85,1.16,1.85,2.21,2.76,3.33A13,13,0,0,1,35.68,196a13.66,13.66,0,0,1-.63,5.88s-.09.06-.1.1A12.75,12.75,0,0,1,26,210.11l-1.6.44H20.85a2.14,2.14,0,0,0-.44-.19,14,14,0,0,1-6.49-3.18c-2.63-2.21-5.31-4.36-8-6.54L.87,196.48a1.76,1.76,0,0,1-.38-2.72,1.75,1.75,0,0,1,2.79-.22l7.28,6,.63.5.89-1.7-4.69-3.85c-2.1-1.72-4.21-3.43-6.29-5.16a1.74,1.74,0,0,1-.27-2.78,1.76,1.76,0,0,1,2.75-.1L13,194.16l.81.65.95-1.28c-.2-.18-.35-.32-.5-.44L2.92,183.76c-1.06-.87-1.19-1.81-.39-2.77a1.79,1.79,0,0,1,2.81-.18c.42.33.87.63,1.3.95v0l.17.23,4.7,3.89c1.52,1.25,3.05,2.47,4.57,3.73,1.27,1.06,1.36,1.05,2.38-.47-1-.8-1.92-1.61-2.9-2.4L7.69,180.3c-.15-.13-.3-.27-.44-.4A1.71,1.71,0,0,1,7,177.23a1.75,1.75,0,0,1,2.75-.15q2.87,2.32,5.73,4.67l7.9,6.49a4.24,4.24,0,0,0-.36.47A12.31,12.31,0,0,0,22.18,200a30.44,30.44,0,0,0,2.06,3.79c.24.4.63.83,1.15.47s0-.73-.16-1.08c-.51-1-1.1-1.9-1.52-2.9a11.78,11.78,0,0,1-.28-9.48C23.76,190.06,24.2,189.36,24.58,188.64Z"/><path class="cls-3" d="M52.24,188.43c1.8-1.49,3.59-3,5.39-4.48l8.25-6.77c1.14-.93,2-.93,2.87,0a1.63,1.63,0,0,1-.08,2.55c-1.9,1.64-3.86,3.22-5.8,4.81l-5.25,4.3a1.87,1.87,0,0,0-.23.26c.93,1.47,1.09,1.48,2.34.46,3.12-2.55,6.26-5.07,9.4-7.6a1.46,1.46,0,0,0,.19-.23c.42-.35.83-.71,1.26-1a1.79,1.79,0,0,1,2.82.42c.65.94.48,1.78-.57,2.64l-11.15,9.14-.69.59,1,1.29,5-4.1,5.25-4.31c1.11-.91,2.1-.82,2.89.25a1.72,1.72,0,0,1-.39,2.61c-1.55,1.29-3.12,2.56-4.68,3.84l-6.32,5.18.89,1.7.45-.34,7.45-6.1a1.91,1.91,0,1,1,2.37,3l-13.4,11a13.3,13.3,0,0,1-5.35,2.7l-1.49.36H51.52a1.45,1.45,0,0,0-.32-.14,12.93,12.93,0,0,1-10.19-8c-.08-.18-.19-.35-.28-.52a28.72,28.72,0,0,1-.68-4,13.31,13.31,0,0,1,3.28-9.11c1.88-2.28,3.63-4.66,5.41-7,.81-1.07,1.53-2.21,2.32-3.29a2,2,0,0,1,2.89-.62,2,2,0,0,1,.79,2.83c-1.17,2.33-2.4,4.63-3.56,7a3,3,0,0,0-.05,1.15,2.92,2.92,0,0,0,.22.54,10.63,10.63,0,0,1,1.42,8.77,18.14,18.14,0,0,1-2.43,5.5c-.13.21-.06.55-.08.83.32,0,.65-.07,1-.15.09,0,.16-.18.23-.28,2.19-3.08,3.45-6.43,2.92-10.27A10.52,10.52,0,0,0,52.24,188.43Z"/><path class="cls-4" d="M37.58,180.83a17.46,17.46,0,0,1-11.73-5,24,24,0,0,1-4.45-5.49,7.61,7.61,0,0,1-.39-.72,1.07,1.07,0,0,1,.26-1.36c.45-.38.87-.15,1.27.17a28.83,28.83,0,0,0,9.42,5,20.27,20.27,0,0,0,15.85-1.61,62.46,62.46,0,0,0,5.42-3.42c.42-.27.8-.58,1.27-.22a1.1,1.1,0,0,1,.29,1.41C52.27,175.76,44.6,180.82,37.58,180.83Z"/><path class="cls-4" d="M50.41,151.08A7.64,7.64,0,0,1,56.23,154a27.72,27.72,0,0,1,2.15,3.21,1,1,0,0,1-.17,1.35c-.41.34-.8.17-1.23-.05a13.9,13.9,0,0,0-13.24,0,1.49,1.49,0,0,1-1.2,0,1.08,1.08,0,0,1-.27-1c1.39-3,3.31-5.43,6.74-6.24A12.8,12.8,0,0,1,50.41,151.08Z"/><path class="cls-4" d="M27.22,156.86a13.49,13.49,0,0,0-7,1.73,1.08,1.08,0,0,1-1,0,1.23,1.23,0,0,1-.34-1c.92-3.48,5-6.55,8.57-6.4a7.22,7.22,0,0,1,4.5,1.94A11.74,11.74,0,0,1,35,157.32a1.34,1.34,0,0,1-.19,1.18,1.21,1.21,0,0,1-1.12,0A13.07,13.07,0,0,0,27.22,156.86Z"/><path class="cls-5" d="M52.24,188.43a10.52,10.52,0,0,1,2.11,5.33c.53,3.84-.73,7.19-2.92,10.27-.07.1-.14.26-.23.28-.31.08-.64.11-1,.15,0-.28-.05-.62.08-.83a18.14,18.14,0,0,0,2.43-5.5,10.63,10.63,0,0,0-1.42-8.77,2.92,2.92,0,0,1-.22-.54Z"/><path class="cls-6" d="M24.58,188.64c-.38.72-.82,1.42-1.13,2.17a11.78,11.78,0,0,0,.28,9.48c.42,1,1,1.93,1.52,2.9.18.34.69.71.16,1.08s-.92-.07-1.15-.47A30.44,30.44,0,0,1,22.18,200a12.31,12.31,0,0,1,.87-11.29,4.24,4.24,0,0,1,.36-.47Z"/><path class="cls-2" d="M215.32,123.53A31.28,31.28,0,0,1,208,111.87a31,31,0,0,1-1.87-11.79,32.09,32.09,0,0,1,8.1-20.48,33,33,0,0,1,19.08-11A33.68,33.68,0,0,1,261,75a32.48,32.48,0,0,1,5.49,46.73,33.13,33.13,0,0,1-20,11.73c-1.39.27-2.81.34-4.22.51.91-2.14.64-3.18-1.16-4.37a3.7,3.7,0,0,0,2-3c.15-1.45-.89-2.23-1.91-3.13l2.42-.58c3.16-.75,6.33-1.45,9.47-2.27a2.68,2.68,0,0,0,1.93-3.45,2.79,2.79,0,0,0-3.49-2.08l-6.21,1.4c-5.23,1.19-10.47,2.38-15.71,3.55a4.32,4.32,0,0,1-1.27-.11,4.18,4.18,0,0,1,.55-1.11,6.46,6.46,0,0,0,1.56-2.89,11.08,11.08,0,0,0-1.08-7.82,5.4,5.4,0,0,0-4.06-3.32c-1.61-.26-2.82.61-2.74,2.2a17.26,17.26,0,0,0,.55,2.54c.64,3,.1,5.67-2.36,7.75A22.31,22.31,0,0,0,215.32,123.53Zm40.87-35,.13-.25c1.25.49,2.5,1,3.76,1.47a3.59,3.59,0,0,0,1.58.26,1.52,1.52,0,0,0,1.3-1.37,1.87,1.87,0,0,0-1.15-1.93,20.68,20.68,0,0,0-16.36-1,1.52,1.52,0,0,0-1.12,1.51A1.93,1.93,0,0,0,246.94,89c.8-.21,1.59-.45,2.4-.68,0,.15,0,.18,0,.2-.08.19-.18.37-.25.56a5.92,5.92,0,0,0,.64,6.27,3.7,3.7,0,0,0,4.91,1,4.55,4.55,0,0,0,2-2.57A6.3,6.3,0,0,0,256.19,88.53Zm-21.61,1.12A5.27,5.27,0,0,0,233,85.57a3.66,3.66,0,0,0-5.11-.1A5.87,5.87,0,0,0,228,94a3.63,3.63,0,0,0,4.87-.16A5.31,5.31,0,0,0,234.58,89.65Zm2.27,15.44c-.69.06-1.79.13-2.88.28a1.64,1.64,0,0,0-1.32,2.26q.56,1.5,2.57,1.24a15.94,15.94,0,0,1,8.49,1.06,30.26,30.26,0,0,1,4,2.29,2,2,0,0,0,2.58-.14,1.78,1.78,0,0,0-.22-2.5,7.66,7.66,0,0,0-.85-.69A21.24,21.24,0,0,0,236.86,105.09Zm-6.17-28.86a21.29,21.29,0,0,0-7.93,1.56,1.76,1.76,0,0,0-1.33,1.55,1.93,1.93,0,0,0,2.78,1.8,16.71,16.71,0,0,1,9.1-1.18,31,31,0,0,1,4.22,1.19,1.9,1.9,0,0,0,2.43-.81,1.77,1.77,0,0,0-.89-2.35,7,7,0,0,0-.78-.36A20.15,20.15,0,0,0,230.68,76.23Z"/><path class="cls-7" d="M215.32,123.53a22.31,22.31,0,0,1,5.44-6.22c2.46-2.08,3-4.76,2.36-7.75a17.26,17.26,0,0,1-.55-2.54c-.09-1.59,1.13-2.46,2.74-2.2a5.4,5.4,0,0,1,4.06,3.32,11.08,11.08,0,0,1,1.08,7.82,6.46,6.46,0,0,1-1.56,2.89,4.18,4.18,0,0,0-.55,1.11,4.32,4.32,0,0,0,1.27.11c5.24-1.16,10.47-2.36,15.71-3.55l6.21-1.4a2.79,2.79,0,0,1,3.49,2.08,2.68,2.68,0,0,1-1.93,3.45c-3.14.82-6.31,1.52-9.47,2.27l-2.42.58c1,.9,2.06,1.68,1.91,3.13a3.7,3.7,0,0,1-2,3c1.81,1.19,2.08,2.24,1.16,4.37l-1.66,1.41a2,2,0,0,1,1,1.91,3.09,3.09,0,0,1-1.3,2.28,8.4,8.4,0,0,1-4,1.4,62.72,62.72,0,0,1-7,1.26A14,14,0,0,1,215.12,132,13,13,0,0,1,215.32,123.53Z"/><path class="cls-4" d="M256.19,88.53a6.3,6.3,0,0,1,.5,5.28,4.55,4.55,0,0,1-2,2.57,3.7,3.7,0,0,1-4.91-1,5.92,5.92,0,0,1-.64-6.27c.08-.19.17-.37.25-.56,0,0,0,0,0-.2-.81.23-1.6.46-2.4.68a1.93,1.93,0,0,1-2.62-1.83,1.52,1.52,0,0,1,1.12-1.51,20.68,20.68,0,0,1,16.36,1A1.87,1.87,0,0,1,263,88.64a1.52,1.52,0,0,1-1.3,1.37,3.59,3.59,0,0,1-1.58-.26c-1.27-.45-2.51-1-3.76-1.47Z"/><path class="cls-8" d="M234.58,89.65a5.31,5.31,0,0,1-1.71,4.19A3.63,3.63,0,0,1,228,94a5.87,5.87,0,0,1-.16-8.52,3.66,3.66,0,0,1,5.11.1A5.27,5.27,0,0,1,234.58,89.65Z"/><path class="cls-4" d="M236.86,105.09a21.24,21.24,0,0,1,12.36,3.8,7.66,7.66,0,0,1,.85.69,1.78,1.78,0,0,1,.22,2.5,2,2,0,0,1-2.58.14,30.26,30.26,0,0,0-4-2.29,15.94,15.94,0,0,0-8.49-1.06q-2,.26-2.57-1.24a1.64,1.64,0,0,1,1.32-2.26C235.06,105.22,236.17,105.15,236.86,105.09Z"/><path class="cls-4" d="M230.68,76.23a20.15,20.15,0,0,1,7.59,1.4,7,7,0,0,1,.78.36,1.77,1.77,0,0,1,.89,2.35,1.9,1.9,0,0,1-2.43.81,31,31,0,0,0-4.22-1.19,16.71,16.71,0,0,0-9.1,1.18,1.93,1.93,0,0,1-2.78-1.8,1.76,1.76,0,0,1,1.33-1.55A21.29,21.29,0,0,1,230.68,76.23Z"/><path class="cls-2" d="M138.43,33.43a33.81,33.81,0,1,1,33.8,33.41A33.57,33.57,0,0,1,138.43,33.43Zm63.23-.34A24,24,0,0,0,199.79,23a13.89,13.89,0,0,0-4.88-6.31,3.89,3.89,0,0,0-5.66,1c-.83,1.13-1.6,2.29-2.39,3.44a98.8,98.8,0,0,1-21.92,23c-2.74,2.08-5.64,4-8.45,5.94a3.88,3.88,0,0,0-1.13,5.71,8.86,8.86,0,0,0,1,1.18,15.2,15.2,0,0,0,5.36,3.61,26.63,26.63,0,0,0,16,1.23C191.52,59,201.66,46.65,201.66,33.1ZM148,36.74c.17.85.45,2.29.76,3.71a1,1,0,0,0,1.07.9c.63,0,.86-.43,1-1a11.36,11.36,0,0,1,.71-1.92,16,16,0,0,1,9.72-8.29,1.19,1.19,0,0,0,.72-.84,1.63,1.63,0,0,0-.6-1,2.29,2.29,0,0,0-.93-.31,12.21,12.21,0,0,0-6.22-.19C150.44,28.79,148.18,31.82,148,36.74ZM175.09,9.3l0,.14-1,.08a7.92,7.92,0,0,0-6.13,3.29c-2.21,3.11-2,6.48-.81,9.87a1.16,1.16,0,0,0,.94.58,1.51,1.51,0,0,0,.92-.73c.26-.45.29-1,.52-1.5a15.83,15.83,0,0,1,9.88-8.82,1,1,0,0,0,.88-1,1,1,0,0,0-.85-1C178,9.87,176.53,9.59,175.09,9.3Z"/><path class="cls-9" d="M201.66,33.1c0,13.55-10.14,25.88-24,28.77a26.63,26.63,0,0,1-16-1.23A15.2,15.2,0,0,1,156.31,57a8.86,8.86,0,0,1-1-1.18,3.88,3.88,0,0,1,1.13-5.71c2.82-2,5.71-3.87,8.45-5.94a98.8,98.8,0,0,0,21.92-23c.79-1.15,1.56-2.32,2.39-3.44a3.89,3.89,0,0,1,5.66-1A13.89,13.89,0,0,1,199.79,23,24,24,0,0,1,201.66,33.1ZM160.3,53.78a20.3,20.3,0,0,0,12-1.27,36.2,36.2,0,0,0,14.35-11,26.8,26.8,0,0,0,6.4-13.82,15.69,15.69,0,0,0-.29-6A109.64,109.64,0,0,1,160.3,53.78Z"/><path class="cls-9" d="M148,36.74c.2-4.92,2.46-8,6.24-8.91a12.21,12.21,0,0,1,6.22.19,2.29,2.29,0,0,1,.93.31,1.63,1.63,0,0,1,.6,1,1.19,1.19,0,0,1-.72.84,16,16,0,0,0-9.72,8.29,11.36,11.36,0,0,0-.71,1.92c-.17.52-.4.94-1,1a1,1,0,0,1-1.07-.9C148.43,39,148.15,37.6,148,36.74Z"/><path class="cls-9" d="M175.09,9.3c1.45.29,2.9.57,4.34.88a1,1,0,0,1,.85,1,1,1,0,0,1-.88,1A15.83,15.83,0,0,0,169.51,21c-.23.47-.26,1-.52,1.5a1.51,1.51,0,0,1-.92.73,1.16,1.16,0,0,1-.94-.58c-1.15-3.39-1.4-6.76.81-9.87a7.92,7.92,0,0,1,6.13-3.29l1-.08Z"/><path class="cls-10" d="M160.3,53.78a109.64,109.64,0,0,0,32.5-32.14,15.69,15.69,0,0,1,.29,6,26.8,26.8,0,0,1-6.4,13.82,36.2,36.2,0,0,1-14.35,11A20.3,20.3,0,0,1,160.3,53.78Z"/><path class="cls-2" d="M102,67.06h5.23a1.41,1.41,0,0,0,.34.13,32.14,32.14,0,0,1,14,4.49,33.08,33.08,0,0,1,16,23.12c.19,1,.34,2.08.5,3.12v5.23c-.1.63-.2,1.27-.3,1.9a33.57,33.57,0,0,1-28.26,28.59l-2.42.37h-.52a2.52,2.52,0,0,1,.57-.29,10.13,10.13,0,0,0,8.28-8.28,33.46,33.46,0,0,0,.33-5.12c.9-.61,1.84-1.17,2.68-1.85a17.27,17.27,0,0,0,6.36-9.62,21.91,21.91,0,0,0,.28-2.2,94.37,94.37,0,0,1-41,0,26,26,0,0,0,.5,2.86c1.43,4.86,4.64,8.28,8.88,10.84,0,.94,0,1.87,0,2.81a10.63,10.63,0,0,0,8.73,10.63,1.52,1.52,0,0,1,.44.27H102l-1.9-.3a33.56,33.56,0,0,1-28.43-27.38c-.19-1.06-.34-2.13-.51-3.19q0-2.68,0-5.36c.1-.59.21-1.18.29-1.77A33.56,33.56,0,0,1,98.87,67.57C99.91,67.39,101,67.23,102,67.06ZM93.14,81.7a1.72,1.72,0,0,0-1.72,1.89.76.76,0,0,1-.57.86,5.38,5.38,0,0,0-1.4.81,3.65,3.65,0,0,0,.26,6,22.12,22.12,0,0,0,2.2,1.14c.88.43,1.78.8,2.65,1.25.48.25,1,.62.88,1.26a1.44,1.44,0,0,1-1.2,1.15,4,4,0,0,1-3.32-.49c-.44-.28-.87-.58-1.33-.83a1.34,1.34,0,0,0-1.69.17,1.41,1.41,0,0,0-.38,1.67,2.36,2.36,0,0,0,.77,1,11.16,11.16,0,0,0,2.3,1.19c.59.21.89.37.85,1.08a1.7,1.7,0,0,0,1.64,1.78,1.66,1.66,0,0,0,1.79-1.6c0-.86.28-1.26,1.07-1.42a1.68,1.68,0,0,0,.47-.22,4.34,4.34,0,0,0,2.32-3.9,3.67,3.67,0,0,0-2.24-3.4c-.74-.4-1.54-.7-2.31-1.06a23.35,23.35,0,0,1-2.41-1.14.92.92,0,0,1,.12-1.7,3.25,3.25,0,0,1,1-.28,3.8,3.8,0,0,1,2.88,1A1.63,1.63,0,0,0,98,87.79a1.58,1.58,0,0,0-.33-2.22,8.67,8.67,0,0,0-2.14-1.2c-.46-.19-.69-.32-.68-.88A1.7,1.7,0,0,0,93.14,81.7Zm22.06,20a1.69,1.69,0,0,0,1.7-1.83,1,1,0,0,1,.78-1.09,4.32,4.32,0,0,0,3.07-4.06c.11-1.88-1-3-2.55-3.74-1-.48-2-.85-3-1.3a8.63,8.63,0,0,1-1.49-.79.91.91,0,0,1,.12-1.6,3.62,3.62,0,0,1,1.24-.35,4,4,0,0,1,2.8,1,1.59,1.59,0,0,0,2.19-.16,1.52,1.52,0,0,0-.24-2.17,8.21,8.21,0,0,0-2.18-1.25c-.52-.21-.75-.39-.74-1a1.71,1.71,0,1,0-3.42,0c0,.65-.25.88-.79,1.11a4,4,0,0,0-2.66,3.7C110,90,111,91,112.38,91.72c.88.46,1.82.82,2.72,1.26A12.1,12.1,0,0,1,117,94.06a1,1,0,0,1-.08,1.74,2.79,2.79,0,0,1-1,.42,4.07,4.07,0,0,1-3.11-.65,11.78,11.78,0,0,0-1.27-.79,1.39,1.39,0,0,0-2.07,1.2,2.54,2.54,0,0,0,.59,1.45,4.61,4.61,0,0,0,2.63,1.47c.61.14.79.39.77,1A1.69,1.69,0,0,0,115.21,101.71Z"/><path class="cls-11" d="M102.65,134a1.52,1.52,0,0,0-.44-.27,10.63,10.63,0,0,1-8.73-10.63c0-.94,0-1.87,0-2.81,0-.28,0-.57,0-.85,0-3,0-5.93,0-8.89,0-.55.21-.7.7-.6s.85.2,1.28.24c2.46.24,4.93.47,7.39.68a44.79,44.79,0,0,0,9.17-.37c1.2-.15,2.4-.35,3.67-.53,0,.31,0,.59,0,.86q0,4.74,0,9.47a33.46,33.46,0,0,1-.33,5.12,10.13,10.13,0,0,1-8.28,8.28,2.52,2.52,0,0,0-.57.29h-3.92Zm.36-4.47c0,.09,0,.28,0,.47a1.72,1.72,0,0,0,1.72,1.89,1.7,1.7,0,0,0,1.67-1.87c0-.61.23-.8.74-1a4.2,4.2,0,0,0,3-3.77c.18-1.92-.89-3.06-2.47-3.83-1-.48-2-.85-3-1.29a7.82,7.82,0,0,1-1.32-.69.91.91,0,0,1,.09-1.64,3.06,3.06,0,0,1,1-.29,3.68,3.68,0,0,1,2.82.94,1.59,1.59,0,0,0,2.24-.11,1.57,1.57,0,0,0-.34-2.21,7.58,7.58,0,0,0-2-1.1c-.51-.2-.75-.37-.75-1a1.68,1.68,0,1,0-3.36.07.89.89,0,0,1-.68,1,4,4,0,0,0-2.68,3.61,3.52,3.52,0,0,0,2.29,3.41c.91.47,1.86.84,2.78,1.28a10.58,10.58,0,0,1,1.6.87c.87.62.8,1.44-.13,2a2.71,2.71,0,0,1-.86.29,4,4,0,0,1-3-.66,10,10,0,0,0-1.28-.78,1.37,1.37,0,0,0-2,1.25,2,2,0,0,0,1.11,1.81C101.06,128.69,102,129.06,103,129.55Z"/><path class="cls-12" d="M115.76,120.33q0-4.74,0-9.47c0-.28,0-.55,0-.86-1.27.19-2.47.39-3.67.53a44.79,44.79,0,0,1-9.17.37c-2.47-.21-4.93-.44-7.39-.68-.43,0-.85-.16-1.28-.24s-.7.06-.7.6c0,3,0,5.93,0,8.89,0,.28,0,.57,0,.85-4.24-2.57-7.45-6-8.88-10.84a26,26,0,0,1-.5-2.86,94.37,94.37,0,0,0,41,0,21.91,21.91,0,0,1-.28,2.2,17.27,17.27,0,0,1-6.36,9.62C117.6,119.16,116.65,119.71,115.76,120.33Z"/><path class="cls-12" d="M93.14,81.7a1.7,1.7,0,0,1,1.75,1.79c0,.56.23.69.68.88a8.67,8.67,0,0,1,2.14,1.2A1.58,1.58,0,0,1,98,87.79a1.63,1.63,0,0,1-2.29.13,3.8,3.8,0,0,0-2.88-1,3.25,3.25,0,0,0-1,.28.92.92,0,0,0-.12,1.7,23.35,23.35,0,0,0,2.41,1.14c.77.35,1.57.65,2.31,1.06a3.67,3.67,0,0,1,2.24,3.4,4.34,4.34,0,0,1-2.32,3.9,1.68,1.68,0,0,1-.47.22c-.79.16-1.09.56-1.07,1.42a1.66,1.66,0,0,1-1.79,1.6,1.7,1.7,0,0,1-1.64-1.78c0-.71-.26-.87-.85-1.08a11.16,11.16,0,0,1-2.3-1.19,2.36,2.36,0,0,1-.77-1,1.41,1.41,0,0,1,.38-1.67,1.34,1.34,0,0,1,1.69-.17c.46.25.88.56,1.33.83a4,4,0,0,0,3.32.49A1.44,1.44,0,0,0,95.43,95c.08-.64-.39-1-.88-1.26-.87-.45-1.77-.83-2.65-1.25a22.12,22.12,0,0,1-2.2-1.14,3.65,3.65,0,0,1-.26-6,5.38,5.38,0,0,1,1.4-.81.76.76,0,0,0,.57-.86A1.72,1.72,0,0,1,93.14,81.7Z"/><path class="cls-12" d="M115.21,101.71a1.69,1.69,0,0,1-1.73-1.81c0-.61-.16-.86-.77-1a4.61,4.61,0,0,1-2.63-1.47,2.54,2.54,0,0,1-.59-1.45,1.39,1.39,0,0,1,2.07-1.2,11.78,11.78,0,0,1,1.27.79,4.07,4.07,0,0,0,3.11.65,2.79,2.79,0,0,0,1-.42,1,1,0,0,0,.08-1.74A12.1,12.1,0,0,0,115.1,93c-.9-.44-1.84-.8-2.72-1.26C111,91,110,90,110,88.25a4,4,0,0,1,2.66-3.7c.54-.23.81-.46.79-1.11a1.71,1.71,0,1,1,3.42,0c0,.59.23.77.74,1a8.21,8.21,0,0,1,2.18,1.25,1.52,1.52,0,0,1,.24,2.17,1.59,1.59,0,0,1-2.19.16,4,4,0,0,0-2.8-1,3.62,3.62,0,0,0-1.24.35.91.91,0,0,0-.12,1.6,8.63,8.63,0,0,0,1.49.79c1,.45,2,.82,3,1.3,1.54.76,2.66,1.86,2.55,3.74a4.32,4.32,0,0,1-3.07,4.06,1,1,0,0,0-.78,1.09A1.69,1.69,0,0,1,115.21,101.71Z"/><path class="cls-13" d="M103,129.55c-1-.49-1.95-.86-2.79-1.36a2,2,0,0,1-1.11-1.81,1.37,1.37,0,0,1,2-1.25,10,10,0,0,1,1.28.78,4,4,0,0,0,3,.66,2.71,2.71,0,0,0,.86-.29c.93-.52,1-1.35.13-2a10.58,10.58,0,0,0-1.6-.87c-.92-.44-1.87-.82-2.78-1.28a3.52,3.52,0,0,1-2.29-3.41,4,4,0,0,1,2.68-3.61.89.89,0,0,0,.68-1,1.68,1.68,0,1,1,3.36-.07c0,.6.25.77.75,1a7.58,7.58,0,0,1,2,1.1,1.57,1.57,0,0,1,.34,2.21,1.59,1.59,0,0,1-2.24.11,3.68,3.68,0,0,0-2.82-.94,3.06,3.06,0,0,0-1,.29.91.91,0,0,0-.09,1.64,7.82,7.82,0,0,0,1.32.69c1,.44,2,.82,3,1.29,1.58.77,2.65,1.91,2.47,3.83a4.2,4.2,0,0,1-3,3.77c-.51.19-.76.37-.74,1a1.7,1.7,0,0,1-1.67,1.87A1.72,1.72,0,0,1,103,130C103,129.83,103,129.63,103,129.55Z"/><path class="cls-2" d="M340.25,168.69A33.29,33.29,0,1,1,307,135.22,33.33,33.33,0,0,1,340.25,168.69ZM296.77,150.4a6.19,6.19,0,0,0-3.43-.15,5.43,5.43,0,0,0-.6.06,10.24,10.24,0,0,0-7.95,10.85,10.13,10.13,0,0,0,12.8,9,9.66,9.66,0,0,0,7.28-7.75,9.78,9.78,0,0,0-3.38-9.9A7.15,7.15,0,0,0,296.77,150.4Zm23.63-.15a6.4,6.4,0,0,0-3.46.16,5.8,5.8,0,0,0-.89.11,10.22,10.22,0,1,0,10.38,2.86A9.05,9.05,0,0,0,320.39,150.25Zm-13.45,31.36H298c-1.34,0-2.15.73-2.14,1.91a1.85,1.85,0,0,0,2.11,1.87h18a1.85,1.85,0,0,0,2.1-1.87c0-1.18-.8-1.91-2.14-1.91Z"/><path class="cls-10" d="M322.39,150.25a9.05,9.05,0,0,1,6,3.12A10.19,10.19,0,1,1,318,150.51a5.81,5.81,0,0,1,.89-.11l-.77.59a4.68,4.68,0,0,0-1.43,5.72,4.64,4.64,0,0,0,8.84-2.19A4.7,4.7,0,0,0,322.39,150.25Z"/><path class="cls-10" d="M297.77,150.4a7.15,7.15,0,0,1,4.73,2.1,9.78,9.78,0,0,1,3.38,9.9,9.66,9.66,0,0,1-7.28,7.75,10.13,10.13,0,0,1-12.8-9,10.24,10.24,0,0,1,7.95-10.85,5.45,5.45,0,0,1,.6-.06l-.7.42a4.7,4.7,0,0,0-2.32,4.68,4.65,4.65,0,0,0,8.45,2A4.73,4.73,0,0,0,297.77,150.4Z"/><path class="cls-14" d="M307.94,181.61h8.94c1.34,0,2.15.73,2.14,1.91a1.85,1.85,0,0,1-2.1,1.87H299a1.85,1.85,0,0,1-2.11-1.87c0-1.19.8-1.91,2.14-1.91Z"/><path class="cls-14" d="M297.77,150.4a4.73,4.73,0,0,1,2,7,4.65,4.65,0,0,1-8.45-2,4.7,4.7,0,0,1,2.32-4.68l.7-.42A6.19,6.19,0,0,1,297.77,150.4Z"/><path class="cls-14" d="M322.39,150.25a4.7,4.7,0,0,1,3.19,4.28,4.64,4.64,0,0,1-8.84,2.19,4.68,4.68,0,0,1,1.43-5.72l.77-.59A6.4,6.4,0,0,1,322.39,150.25Z"/><path class="cls-2" d="M407.83,101.09A33.12,33.12,0,1,1,374.76,68,33,33,0,0,1,407.83,101.09Zm-33.18,7.18a12.93,12.93,0,0,0-2.06.6c-3.76,1.8-4.64,7.5-1.67,10.64a5,5,0,0,0,7.55,0,7.2,7.2,0,0,0,.29-9.06A5.47,5.47,0,0,0,374.66,108.26ZM359,94.65a7.94,7.94,0,0,0,1.5,4.69,3.72,3.72,0,0,0,6.25,0,8.29,8.29,0,0,0-.16-9.73,3.67,3.67,0,0,0-5.87,0A7.77,7.77,0,0,0,359,94.65Zm31.32.33a8,8,0,0,0-1.78-5.46,3.65,3.65,0,0,0-5.62-.06c-2.44,2.56-2.45,7.73,0,10.29a3.67,3.67,0,0,0,5.77-.21A7.6,7.6,0,0,0,390.35,95Zm-4.24-17.82a1.93,1.93,0,0,0-2.22,1.72,1.84,1.84,0,0,0,1.87,2,11.42,11.42,0,0,1,1.64.21,16.22,16.22,0,0,1,9.58,6.2,1.87,1.87,0,1,0,3-2.25,22.07,22.07,0,0,0-1.61-1.88A19.15,19.15,0,0,0,386.11,77.16Zm-23,0c-.74.14-1.89.29-3,.59a19.75,19.75,0,0,0-10.76,7.41,1.84,1.84,0,0,0,.31,2.73,1.88,1.88,0,0,0,2.66-.47c.22-.28.43-.55.66-.82a15.44,15.44,0,0,1,10.8-5.7,1.83,1.83,0,0,0,1.69-1.95C365.47,77.91,364.64,77.15,363.16,77.15Z"/><path class="cls-15" d="M376.66,110.26a5.47,5.47,0,0,1,4.11,2.17,7.2,7.2,0,0,1-.29,9.06,5,5,0,0,1-7.55,0c-3-3.14-2.09-8.85,1.67-10.64A12.93,12.93,0,0,1,376.66,110.26Z"/><path class="cls-16" d="M361,96.65a7.77,7.77,0,0,1,1.73-5,3.67,3.67,0,0,1,5.87,0,8.29,8.29,0,0,1,.16,9.73,3.72,3.72,0,0,1-6.25,0A7.94,7.94,0,0,1,361,96.65Z"/><path class="cls-16" d="M392.35,97a7.6,7.6,0,0,1-1.64,4.56,3.67,3.67,0,0,1-5.77.21c-2.44-2.56-2.44-7.73,0-10.29a3.65,3.65,0,0,1,5.62.06A8,8,0,0,1,392.35,97Z"/><path class="cls-4" d="M388.11,79.16a19.15,19.15,0,0,1,12.2,6,22.07,22.07,0,0,1,1.61,1.88,1.87,1.87,0,1,1-3,2.25,16.22,16.22,0,0,0-9.58-6.2,11.42,11.42,0,0,0-1.64-.21,1.84,1.84,0,0,1-1.87-2A1.93,1.93,0,0,1,388.11,79.16Z"/><path class="cls-4" d="M365.16,79.15c1.48,0,2.32.76,2.36,1.78a1.83,1.83,0,0,1-1.69,1.95,15.44,15.44,0,0,0-10.8,5.7c-.23.26-.45.54-.66.82a1.88,1.88,0,0,1-2.66.47,1.84,1.84,0,0,1-.31-2.73,19.75,19.75,0,0,1,10.76-7.41C363.27,79.44,364.41,79.29,365.16,79.15Z"/><path class="cls-2" d="M439.68.19h5.22a1.42,1.42,0,0,0,.34.12,32.4,32.4,0,0,1,14,4.43,32.61,32.61,0,0,1,16,22.79c.19,1,.34,2.05.5,3.08v5.16a3.63,3.63,0,0,0-.14.53,32.87,32.87,0,0,1-1.71,7.7c-.08-.07-.17-.13-.25-.21a5.63,5.63,0,0,0-6.35-1.29,3.26,3.26,0,0,1-.45.1l-.14-.46a5.7,5.7,0,0,0-10.94.07,13.27,13.27,0,0,0,0,6.87,19.1,19.1,0,0,0,3.33,7.14,1.72,1.72,0,0,0,1.7.81c.77-.09,1.56-.1,2.33-.22,1-.15,2-.36,2.93-.55a1.24,1.24,0,0,1-.16.27,33.27,33.27,0,0,1-18.51,9.27l-2.61.38h-5.09l-1.9-.29a33.14,33.14,0,0,1-17.56-8,32.38,32.38,0,0,1-10.83-19c-.19-1-.34-2.1-.51-3.14V30.48c.1-.58.21-1.16.29-1.74a32.31,32.31,0,0,1,8.06-17.34A33,33,0,0,1,436.56.69C437.6.51,438.64.36,439.68.19Zm8.16,51.27a4.88,4.88,0,0,0,.62-.23A17.19,17.19,0,0,0,451,49.81a3.51,3.51,0,0,0,.07-5.72,8,8,0,0,0-1.75-1.1,19.66,19.66,0,0,0-6.89-1.56.9.9,0,0,0-1.06.81c-.05.52.27.89.87,1l.77.11a10.38,10.38,0,0,1,4.63,1.6,2.23,2.23,0,0,1,0,3.92A10,10,0,0,1,445.12,50a19,19,0,0,1-2.68.54c-.68.11-1.07.41-1.05.92s.44.88,1,1l.52.07a12,12,0,0,1,4.27,1.31c2.13,1.23,2.13,3.31,0,4.54a5.38,5.38,0,0,1-1.3.59c-1.15.3-2.32.55-3.49.78-.69.13-1.07.46-1,1s.46.89,1.17.82c1.1-.12,2.21-.22,3.29-.44a12.12,12.12,0,0,0,4.88-1.89,3.73,3.73,0,0,0,1.77-3.32,3.63,3.63,0,0,0-1.82-3C449.79,52.38,448.81,52,447.84,51.46Zm-13-22.83a7.53,7.53,0,0,0-1.66-4.93,3.72,3.72,0,0,0-5.92,0,8.07,8.07,0,0,0,0,9.91,3.7,3.7,0,0,0,5.92-.05A7.51,7.51,0,0,0,434.87,28.62Zm18.55-1.86c-3.29,0-7.42,3.06-8.26,6.16a1.09,1.09,0,0,0,.31.94,1.11,1.11,0,0,0,1,.08,12.67,12.67,0,0,1,5.32-1.59,14.28,14.28,0,0,1,8.4,1.5c.46.26.89.38,1.31,0a.93.93,0,0,0,.08-1.3,25.48,25.48,0,0,0-2-2.84A8.09,8.09,0,0,0,453.42,26.76Zm-3.58-10.3c-.6.06-1.34.12-2.07.22a1.83,1.83,0,1,0,.44,3.63,27.15,27.15,0,0,1,3.12-.13A12.72,12.72,0,0,1,461.11,25a2.71,2.71,0,0,0,.66.61,1.84,1.84,0,0,0,2.32-.33,1.8,1.8,0,0,0,0-2.47C460.5,18.23,455.65,16.44,449.84,16.46Zm-17.06-7.1h-.2a19.6,19.6,0,0,0-14.07,8.14,2.17,2.17,0,0,0-.26,1.45,1.57,1.57,0,0,0,1.34,1.33,2,2,0,0,0,2.08-.87A15.91,15.91,0,0,1,433,13a1.8,1.8,0,0,0,1.8-2A1.87,1.87,0,0,0,432.78,9.36Z"/><path class="cls-17" d="M475.86,44a5.52,5.52,0,0,1-.1,7.32,14.53,14.53,0,0,1-3,2.63,44.45,44.45,0,0,1-4.54,2.19l-.19.13h0c-1,.19-1.95.4-2.93.55-.77.12-1.56.13-2.33.22a1.72,1.72,0,0,1-1.7-.81,19.1,19.1,0,0,1-3.33-7.14,13.27,13.27,0,0,1,0-6.87,5.7,5.7,0,0,1,10.94-.07l.14.46a3.26,3.26,0,0,0,.45-.1,5.63,5.63,0,0,1,6.35,1.29C475.69,43.86,475.78,43.93,475.86,44Z"/><path class="cls-4" d="M447.84,51.46c1,.5,1.95.92,2.83,1.49a3.63,3.63,0,0,1,1.82,3,3.73,3.73,0,0,1-1.77,3.32,12.12,12.12,0,0,1-4.88,1.89c-1.08.21-2.19.32-3.29.44-.7.07-1.13-.25-1.17-.82s.34-.88,1-1c1.17-.23,2.33-.48,3.49-.78a5.38,5.38,0,0,0,1.3-.59c2.14-1.23,2.13-3.32,0-4.54a12,12,0,0,0-4.27-1.31l-.52-.07c-.58-.07-1-.31-1-1s.38-.81,1.05-.92a19,19,0,0,0,2.68-.54,10,10,0,0,0,2.53-1.15,2.23,2.23,0,0,0,0-3.92,10.38,10.38,0,0,0-4.63-1.6l-.77-.11c-.6-.11-.93-.48-.87-1a.9.9,0,0,1,1.06-.81A19.66,19.66,0,0,1,449.33,43a8,8,0,0,1,1.75,1.1,3.51,3.51,0,0,1-.07,5.72,17.19,17.19,0,0,1-2.54,1.41A4.88,4.88,0,0,1,447.84,51.46Z"/><path class="cls-16" d="M436.87,28.62a7.51,7.51,0,0,1-1.66,4.88,3.7,3.7,0,0,1-5.92.05,8.07,8.07,0,0,1,0-9.91,3.72,3.72,0,0,1,5.92,0A7.53,7.53,0,0,1,436.87,28.62Z"/><path class="cls-4" d="M455.42,26.76a8.09,8.09,0,0,1,6.14,2.94,25.48,25.48,0,0,1,2,2.84.93.93,0,0,1-.08,1.3c-.42.39-.85.27-1.31,0a14.28,14.28,0,0,0-8.4-1.5,12.67,12.67,0,0,0-5.32,1.59,1.11,1.11,0,0,1-1-.08,1.09,1.09,0,0,1-.31-.94C448,29.82,452.13,26.77,455.42,26.76Z"/><path class="cls-4" d="M451.84,16.46c5.82,0,10.66,1.76,14.24,6.31a1.8,1.8,0,0,1,0,2.47,1.84,1.84,0,0,1-2.32.33,2.71,2.71,0,0,1-.66-.61,12.72,12.72,0,0,0-9.78-4.78,27.15,27.15,0,0,0-3.12.13,1.83,1.83,0,1,1-.44-3.63C450.5,16.58,451.24,16.53,451.84,16.46Z"/><path class="cls-4" d="M434.78,9.36a1.87,1.87,0,0,1,2.07,1.69,1.8,1.8,0,0,1-1.8,2,15.91,15.91,0,0,0-11.38,6.4,2,2,0,0,1-2.08.87A1.57,1.57,0,0,1,420.25,19a2.17,2.17,0,0,1,.26-1.45,19.6,19.6,0,0,1,14.07-8.14Z"/><path class="cls-2" d="M466,56.26l.19-.13Z"/></g></g></svg>